<svg width="120" height="150" xmlns="http://www.w3.org/2000/svg" fill="none" viewBox="0 0 300 59">
  <path fill="#052555" d="m274.14 51.616 5.368-3.636a9.707 9.707 0 0 0 2.896 3.556 7.128 7.128 0 0 0 4.148 1.115 6.765 6.765 0 0 0 4.523-1.439 5.73 5.73 0 0 0 1.627-4.59v-3.635h-.114a6.775 6.775 0 0 1-2.88 2.52 9.485 9.485 0 0 1-4.441 1.067 12.598 12.598 0 0 1-5.182-1.012 12.523 12.523 0 0 1-4.302-3.044 15.64 15.64 0 0 1-3.823-11.167 15.367 15.367 0 0 1 3.937-11.102 12.425 12.425 0 0 1 4.188-3.032 12.495 12.495 0 0 1 5.068-1.073 9.226 9.226 0 0 1 4.336.836 9.164 9.164 0 0 1 3.44 2.752h.098v-2.796h6.947V45.75a12.353 12.353 0 0 1-.803 5.255 12.42 12.42 0 0 1-2.939 4.441 13.918 13.918 0 0 1-9.68 3.362 14.715 14.715 0 0 1-7.727-1.972 11.496 11.496 0 0 1-4.62-5.22h-.065Zm18.643-17.324v-5.947a5.643 5.643 0 0 0-1.724-4.169 6.215 6.215 0 0 0-4.604-1.713 6.543 6.543 0 0 0-2.887.544 6.51 6.51 0 0 0-2.352 1.75 9.658 9.658 0 0 0-2.001 6.594 9.656 9.656 0 0 0 2.034 6.594 6.656 6.656 0 0 0 2.343 1.728c.9.397 1.878.59 2.863.566a6.238 6.238 0 0 0 4.604-1.729 5.69 5.69 0 0 0 1.724-4.218Zm-49.895 11.474v-28.83h6.914v2.78h.114a9.41 9.41 0 0 1 3.254-2.554 9.812 9.812 0 0 1 4.425-1.034 10.129 10.129 0 0 1 4.12.627 10.064 10.064 0 0 1 3.51 2.233 10.894 10.894 0 0 1 2.175 3.678c.475 1.356.675 2.792.59 4.225v18.875h-7.06v-17.13a7.305 7.305 0 0 0-1.155-4.476 4.746 4.746 0 0 0-3.986-1.487 5.629 5.629 0 0 0-4.148 1.487 5.41 5.41 0 0 0-1.481 3.991v17.615h-7.272ZM229.321 12.59h7.207V5.882h-7.175l-.032 6.707Zm0 33.177h7.207v-28.83h-7.175l-.032 28.83Zm-18.774 0V16.678h6.8v3.07h.114a6.48 6.48 0 0 1 2.457-2.634 6.634 6.634 0 0 1 3.562-.986 6.543 6.543 0 0 1 2.636.55l-1.09 6.916a6.86 6.86 0 0 0-2.278-.452c-3.34 0-5.01 2.214-5.01 6.642V45.75l-7.191.016ZM178.222 58V16.936h6.865V19.7h.114l.277-.404a5.95 5.95 0 0 1 .862-.84 11.9 11.9 0 0 1 1.529-1.1 8.906 8.906 0 0 1 2.245-.856 11.464 11.464 0 0 1 3.026-.388c1.725.005 3.428.373 4.999 1.08a12.175 12.175 0 0 1 4.111 3.025 15.463 15.463 0 0 1 3.921 11.118 15.799 15.799 0 0 1-3.807 11.167 11.956 11.956 0 0 1-4.126 3.046 12.029 12.029 0 0 1-5.033 1.042 10.84 10.84 0 0 1-2.961-.387c-.767-.2-1.506-.5-2.196-.89-.498-.314-.976-.66-1.431-1.033a6.47 6.47 0 0 1-.895-.905l-.212-.372h-.114V58h-7.174Zm7.191-29.655v5.947a5.66 5.66 0 0 0 .42 2.288 5.714 5.714 0 0 0 1.304 1.93 6.238 6.238 0 0 0 4.604 1.73 6.695 6.695 0 0 0 2.863-.567 6.66 6.66 0 0 0 2.343-1.728 9.65 9.65 0 0 0 2.033-6.594 9.648 9.648 0 0 0-2.001-6.593 6.498 6.498 0 0 0-2.351-1.75 6.543 6.543 0 0 0-2.887-.545 6.222 6.222 0 0 0-2.481.382 6.188 6.188 0 0 0-2.123 1.331 5.643 5.643 0 0 0-1.724 4.17Zm-40.329 4.606 7.792-1.697a13.978 13.978 0 0 0 2.343 6.464 6.513 6.513 0 0 0 2.422 1.598 6.55 6.55 0 0 0 2.881.39 9.72 9.72 0 0 0 4.995-1.115 3.67 3.67 0 0 0 1.394-1.399 3.63 3.63 0 0 0 .46-1.914 4.025 4.025 0 0 0-1.773-3.523 35.94 35.94 0 0 0-8.134-3.232 19.385 19.385 0 0 1-8.492-4.509 9.156 9.156 0 0 1-2.489-6.464c-.01-1.453.296-2.89.897-4.215a10.106 10.106 0 0 1 2.584-3.461 13.544 13.544 0 0 1 9.468-3.232 16.515 16.515 0 0 1 9.371 2.618 11.619 11.619 0 0 1 3.252 3.402 11.515 11.515 0 0 1 1.628 4.403l-7.109 1.843a7.627 7.627 0 0 0-1.735-3.004 7.698 7.698 0 0 0-2.891-1.935 7.742 7.742 0 0 0-6.762.624 3.526 3.526 0 0 0-1.399 2.893 2.861 2.861 0 0 0 .436 1.533c.288.46.701.83 1.191 1.068l.212.114a64.285 64.285 0 0 0 6.507 2.504l1.513.518a22.06 22.06 0 0 1 8.736 4.718 9.651 9.651 0 0 1 2.326 6.869 10.642 10.642 0 0 1-.96 4.634 10.711 10.711 0 0 1-2.879 3.769 15.097 15.097 0 0 1-10.265 3.345 15.804 15.804 0 0 1-10.575-3.426 15.106 15.106 0 0 1-4.88-10.18h-.065Zm-29.82 18.665 5.369-3.636a9.701 9.701 0 0 0 2.879 3.556 7.163 7.163 0 0 0 4.165 1.115 6.796 6.796 0 0 0 4.522-1.439 5.72 5.72 0 0 0 1.627-4.59v-3.635h-.114a6.767 6.767 0 0 1-2.879 2.52 9.485 9.485 0 0 1-4.441 1.067 12.567 12.567 0 0 1-5.184-1.009 12.497 12.497 0 0 1-4.301-3.047 15.58 15.58 0 0 1-3.823-11.167 15.375 15.375 0 0 1 3.937-11.102 12.4 12.4 0 0 1 4.187-3.035 12.467 12.467 0 0 1 5.07-1.07 9.162 9.162 0 0 1 4.33.832 9.104 9.104 0 0 1 3.43 2.756h.114v-2.796h6.881V45.75a12.368 12.368 0 0 1-3.742 9.697 13.934 13.934 0 0 1-9.761 3.36 14.585 14.585 0 0 1-7.792-1.955 11.495 11.495 0 0 1-4.62-5.22l.146-.016Zm18.644-17.324v-5.947a5.644 5.644 0 0 0-1.725-4.169 6.248 6.248 0 0 0-4.653-1.713 6.514 6.514 0 0 0-5.222 2.295 9.658 9.658 0 0 0-2.001 6.593 9.653 9.653 0 0 0 2.066 6.594 6.616 6.616 0 0 0 2.32 1.721 6.661 6.661 0 0 0 2.837.574 6.27 6.27 0 0 0 4.621-1.73 5.69 5.69 0 0 0 1.724-4.218h.033ZM101.501 12.59h7.191V5.882h-7.191v6.707Zm0 33.177h7.191v-28.83h-7.191v28.83ZM75.228 22.851h7.955a5.377 5.377 0 0 0 3.53-1.067 3.903 3.903 0 0 0 1.285-3.232 4.225 4.225 0 0 0-1.252-3.232 5.296 5.296 0 0 0-3.563-1.099h-7.955v8.63Zm0 15.805h9.045c3.547 0 5.32-1.676 5.32-5.026a4.594 4.594 0 0 0-1.415-3.588 5.588 5.588 0 0 0-3.856-1.26h-9.094v9.874Zm-7.58 7.11v-38.3h16.349a11.457 11.457 0 0 1 4.427.681 11.4 11.4 0 0 1 3.82 2.325 9.793 9.793 0 0 1 2.332 3.326c.535 1.258.8 2.613.776 3.978a7.894 7.894 0 0 1-1.055 4.21 7.963 7.963 0 0 1-3.126 3.03 9.243 9.243 0 0 1 4.05 3.313 9.344 9.344 0 0 1 1.627 5.446 11.614 11.614 0 0 1-.802 4.77 11.678 11.678 0 0 1-2.679 4.038c-2.234 2.154-5.922 3.232-11.062 3.232l-14.658-.049Z"/>
  <path fill="#0C5CD4" d="M11.276 18.304C4.98 16.34 0 16.481 0 7.896V0h27.906a38.255 38.255 0 0 1 7.666.726 17.085 17.085 0 0 1 6.047 2.407 11.256 11.256 0 0 1 3.86 4.425 15.373 15.373 0 0 1 1.369 6.815 12.347 12.347 0 0 1-2.046 7.329c-1.322 1.969-3.508 3.867-5.673 4.85"/>
  <path fill="url(#a)" d="M39.502 26.305a23.776 23.776 0 0 1 7.773 6.25 15.508 15.508 0 0 1 2.72 9.062 16.31 16.31 0 0 1-1.778 7.79 15.051 15.051 0 0 1-4.713 5.31 21.142 21.142 0 0 1-6.776 3.098 30.375 30.375 0 0 1-7.826 1.009H0v-32.27c0-6.108 4.606-8.851 11.418-8.126a113.138 113.138 0 0 1 28.084 7.877Z"/>
  <defs>
    <linearGradient id="a" x1="25" x2="25" y1="18.314" y2="58.824" gradientUnits="userSpaceOnUse">
      <stop stop-color="#8FCFDF"/>
      <stop offset="1" stop-color="#1E9EBE"/>
    </linearGradient>
  </defs>
</svg>
