<svg width="100" height="45" viewBox="0 0 100 35" fill="none" xmlns="http://www.w3.org/2000/svg">
<mask id="mask0_106_69" style="mask-type:alpha" maskUnits="userSpaceOnUse" x="2" y="10" width="29" height="25">
<path fill-rule="evenodd" clip-rule="evenodd" d="M2.72931 10.5928H30.5048V34.8555H2.72931V10.5928Z" fill="white"/>
</mask>
<g mask="url(#mask0_106_69)">
<path fill-rule="evenodd" clip-rule="evenodd" d="M24.8115 19.6359C24.6579 20.1184 24.6881 20.7705 25.0751 21.1427C25.4571 21.51 25.9879 21.4904 26.4754 21.453C27.4194 21.3807 28.5094 21.1096 29.4165 21.4732C30.5771 21.9386 30.7408 23.1702 30.2306 24.1866C29.8892 24.867 29.331 25.35 28.8121 25.8918C26.9258 27.8616 25.6204 30.2321 24.1865 32.5261C23.5999 33.4643 22.8435 34.7139 21.6267 34.8427C20.5413 34.9577 19.3328 34.2912 19.1669 33.1455C18.9974 31.9762 20.1119 30.9037 20.8696 30.1487C21.4026 29.6177 21.8996 29.068 22.389 28.4952C22.9535 27.8345 23.5138 27.1757 24.0301 26.4757C24.6353 25.6552 25.6392 24.3118 24.899 23.2884C24.3603 22.5434 23.2181 22.672 22.4746 22.9711C21.5021 23.3623 20.7363 24.1534 20.1071 24.9702C19.3981 25.8902 18.9047 26.9814 18.3169 27.9786C17.8312 28.8025 17.3522 29.6291 16.5442 30.1796C15.8015 30.6855 14.6422 30.5204 14.1194 29.7602C13.5279 28.9005 13.9276 27.7739 14.4106 26.9648C14.8315 26.2598 15.4635 25.6623 16.0335 25.0784C16.9492 24.1402 17.8771 23.2096 18.7651 22.2448C19.2085 21.7632 19.6496 21.2811 20.0517 20.7641C20.4149 20.2971 20.9654 19.6827 20.8031 19.032C20.4974 17.8062 18.5622 18.2502 17.7681 18.6377C16.6049 19.2054 15.7158 20.1712 14.8569 21.1112C13.9454 22.1086 13.194 23.2382 12.4435 24.3575C10.9121 26.6409 9.49973 29.0166 7.91723 31.2637C7.25973 32.1975 6.46491 33.3362 5.2667 33.5848C4.01116 33.8454 2.89348 32.9755 2.74545 31.7179C2.6217 30.6664 3.23098 29.643 3.84348 28.84C4.38652 28.128 4.94723 27.4282 5.5183 26.7384C7.04527 24.8946 8.58009 23.0493 10.1421 21.2355C11.4703 19.693 12.7592 18.1155 13.9897 16.4934C14.6949 15.5641 15.4121 14.6484 16.0592 13.6754C16.6592 12.7732 17.2862 11.8066 18.169 11.1507C18.884 10.6193 20.016 10.3262 20.7896 10.9257C21.7647 11.6812 21.2844 13.0875 20.8781 14.0066C20.4917 14.8807 20.084 16.0596 21.2469 16.5139C22.064 16.8334 22.9958 16.5773 23.7862 16.9879C24.7296 17.478 25.1249 18.6511 24.8115 19.6359Z" fill="#2B2A35"/>
</g>
<mask id="mask1_106_69" style="mask-type:alpha" maskUnits="userSpaceOnUse" x="0" y="0" width="22" height="26">
<path fill-rule="evenodd" clip-rule="evenodd" d="M0 0.178711H21.8215V25.3671H0V0.178711Z" fill="white"/>
</mask>
<g mask="url(#mask1_106_69)">
<path fill-rule="evenodd" clip-rule="evenodd" d="M8.55588 19.7106C10.4802 16.9298 12.4966 14.3034 14.7248 11.7666C16.5945 9.63805 18.5702 7.59698 20.4952 5.51877C21.2164 4.74038 21.7957 3.83448 21.8209 2.74359C21.8461 1.65252 21.0612 0.74752 19.9368 0.770912C18.7957 0.794841 17.947 1.76591 17.2982 2.59127C16.5486 3.54502 15.9086 4.57948 15.233 5.58466C14.5943 6.53502 13.8668 7.42359 13.1896 8.34645C12.4377 9.37127 11.7093 10.4202 10.8645 11.3736C10.2171 12.1043 9.3891 13.4175 8.28053 13.4029C7.8541 13.3972 7.53606 13.1132 7.37892 12.7318C7.15571 12.1906 7.37517 11.7277 7.67874 11.2804C8.18481 10.5345 8.81106 9.86377 9.43088 9.21252C10.0061 8.60841 10.768 8.03198 11.1011 7.25073C11.4102 6.52556 11.3125 5.56073 10.7634 4.97841C10.4091 4.6027 9.9216 4.3752 9.40249 4.5277C8.83463 4.69431 8.42696 5.27573 7.94731 5.59806C7.6341 5.80841 6.98446 5.99788 6.78785 5.5327C6.60606 5.10252 7.17213 4.61109 7.42606 4.3502C8.13035 3.62681 9.37946 2.87823 9.44374 1.76466C9.51303 0.56127 8.31499 -0.0728376 7.26588 0.272341C6.20392 0.621448 5.44142 1.51127 4.81874 2.3977C4.27446 3.17234 3.32428 4.53002 3.68553 5.52984C3.85571 6.00091 4.28321 6.23823 4.75713 6.31145C5.25392 6.38841 5.94035 6.11663 6.37624 6.40877C7.36946 7.07413 6.15642 8.66627 5.70642 9.29948C5.02035 10.2645 4.23053 11.1761 3.39553 12.0148C2.51053 12.9039 1.52856 13.7373 0.73267 14.7091C0.107849 15.472 -0.317687 16.5945 0.30517 17.497C1.00517 18.5113 2.30392 18.3366 3.07446 17.5298C3.87946 16.6868 4.28946 15.4936 5.19606 14.7486C5.58106 14.4322 6.08338 14.1482 6.59231 14.3289C7.15713 14.5295 7.31963 15.1032 7.17999 15.6373C6.89303 16.7354 5.84088 17.6647 5.08392 18.4518C4.26571 19.3025 3.35892 20.0645 2.5491 20.9216C1.83856 21.6739 1.22999 22.7525 1.33606 23.8256C1.39035 24.375 1.69017 24.8877 2.17821 25.1598C3.13713 25.6945 4.25946 25.1006 4.9741 24.4445C6.10838 23.4027 6.93963 22.0209 7.81946 20.7632L8.55588 19.7106Z" fill="#2B2A35"/>
</g>
<path fill-rule="evenodd" clip-rule="evenodd" d="M29.1238 4.81939C28.5417 5.42046 27.9037 5.96332 27.3176 6.55975C26.7515 7.13582 25.8583 8.02707 26.1401 8.92957C26.416 9.81314 27.5562 9.85135 28.1676 9.32957C28.8353 8.75921 29.3969 7.83743 30.4119 8.10207C31.3731 8.35296 31.6462 9.48243 31.4528 10.3383C31.2419 11.271 30.5354 11.8578 29.8983 12.5139C29.1912 13.2421 28.5874 14.0039 28.0531 14.868C27.6379 15.5394 27.2047 16.2399 26.3254 16.3085C25.5038 16.3726 24.8049 15.6735 24.6258 14.9074C24.3892 13.8947 24.9971 13.0483 25.5924 12.301C26.0578 11.7172 26.6354 10.8417 25.9317 10.1944C25.1687 9.49243 24.1204 9.971 23.3271 10.3147C22.4744 10.6844 21.5387 10.599 21.0388 9.71153C20.5996 8.93207 20.9437 7.97528 21.4131 7.30082C22.1846 6.19225 23.214 5.26368 24.0217 4.17546C25.0315 2.8151 25.7054 0.608676 27.7787 0.770105C28.6113 0.835105 29.4046 1.45046 29.7197 2.22135C30.0781 3.09796 29.7658 4.15671 29.1238 4.81939Z" fill="#2B2A35"/>
<path fill-rule="evenodd" clip-rule="evenodd" d="M37.7562 28.0608H41.4471V11.4518L48.1213 28.0608H49.4438L55.9951 11.4518V28.0608H60.0858V6.06934H54.6724L49.0133 21.079L43.231 6.06934H37.7562V28.0608ZM62.4706 28.0607H66.1924V11.9746H62.4706V28.0607ZM64.2853 9.33004C65.5158 9.33004 66.5001 8.40737 66.5001 7.20772C66.5001 5.97754 65.5158 5.05469 64.2853 5.05469C63.0553 5.05469 62.071 5.97754 62.071 7.20772C62.071 8.40737 63.0553 9.33004 64.2853 9.33004ZM68.5729 28.061H72.2945V18.5878C72.2945 16.0349 73.9862 14.7431 76.0778 14.7431C78.2922 14.7431 79.2763 15.8505 79.2763 18.2803V28.061H82.9979V17.9419C82.9979 13.5128 80.7219 11.6367 77.4924 11.6367C74.8474 11.6367 73.0635 12.9592 72.2945 14.5278V11.9749H68.5729V28.061ZM92.4771 28.3685C96.5985 28.3685 99.3358 26.5231 99.8585 23.1399H96.2601C95.9831 24.7085 94.8144 25.6005 92.5692 25.6005C89.8012 25.6005 88.2633 23.878 88.1401 20.833H99.9203V19.7565C99.9203 14.0049 96.3217 11.6367 92.3231 11.6367C87.7405 11.6367 84.3264 14.9585 84.3264 19.9412V20.1873C84.3264 25.2621 87.7405 28.3685 92.4771 28.3685ZM88.2017 18.3421C88.5708 15.8509 90.0779 14.3438 92.3231 14.3438C94.6299 14.3438 96.0447 15.5741 96.2294 18.3421H88.2017Z" fill="#2B2A35"/>
</svg>
