<?xml version="1.0" standalone="no"?>
<!DOCTYPE svg PUBLIC "-//W3C//DTD SVG 20010904//EN"
 "http://www.w3.org/TR/2001/REC-SVG-20010904/DTD/svg10.dtd">
<svg version="1.0" xmlns="http://www.w3.org/2000/svg"
 width="120" height="150" viewBox="0 0 3621.000000 788.000000"
 preserveAspectRatio="xMidYMid meet">

<g transform="translate(0.000000,788.000000) scale(0.100000,-0.100000)"
fill="#000000" stroke="none">
<path d="M2781 7823 c5 -27 11 -120 15 -208 15 -357 -52 -674 -194 -920 -122
-210 -387 -472 -715 -706 -133 -95 -368 -244 -454 -287 l-40 -21 -6 44 c-4 24
-18 77 -32 117 -28 80 -47 217 -38 272 3 23 2 36 -5 36 -17 0 -187 -166 -251
-245 -228 -284 -393 -658 -515 -1165 -40 -165 -81 -398 -95 -544 -6 -54 -12
-100 -14 -103 -3 -2 -29 39 -58 92 -30 52 -57 95 -60 95 -11 0 -102 -204 -145
-327 -116 -329 -167 -633 -168 -1008 -1 -384 46 -686 165 -1052 36 -110 62
-164 190 -390 133 -233 163 -278 273 -410 305 -366 740 -724 1061 -874 254
-119 582 -193 925 -208 624 -27 1057 95 1663 471 166 103 244 167 398 325 287
294 507 623 657 978 288 681 365 1451 237 2344 -23 160 -86 481 -94 481 -4 0
-15 -28 -25 -61 -18 -66 -68 -173 -92 -201 -42 -45 -92 -17 -134 76 -15 34
-48 142 -74 241 -70 275 -131 446 -235 655 -89 178 -175 319 -279 454 -54 70
-47 80 -97 -124 -47 -185 -102 -303 -179 -382 -100 -102 -96 -106 -96 94 0
370 -59 663 -220 1093 -92 246 -267 632 -280 618 -4 -4 -24 -53 -45 -108 -69
-182 -145 -315 -181 -315 -22 0 -41 39 -64 135 -80 323 -247 641 -454 863 -61
66 -235 222 -247 222 -3 0 -2 -21 2 -47z m-271 -4372 c109 -28 265 -105 355
-174 84 -64 186 -180 238 -270 l39 -66 54 35 c79 51 175 92 284 121 132 36
327 38 445 5 355 -100 620 -395 691 -769 22 -117 15 -305 -16 -418 -93 -342
-367 -614 -702 -697 l-87 -21 -21 -66 c-47 -144 -128 -278 -241 -395 -199
-209 -450 -316 -733 -316 -514 1 -936 392 -985 913 -6 56 -7 121 -4 144 l5 41
-53 28 c-228 114 -405 318 -491 564 -98 284 -54 629 114 888 160 245 384 400
668 463 116 26 319 21 440 -10z"/>
<path d="M2264 2540 c-96 -30 -179 -128 -190 -226 -5 -41 -2 -54 17 -78 25
-31 20 -31 227 -10 38 4 98 2 148 -6 99 -16 105 -13 112 58 12 134 -94 257
-232 268 -28 2 -65 -1 -82 -6z"/>
<path d="M3590 2271 c-112 -34 -188 -137 -181 -243 1 -21 45 -35 132 -42 67
-5 120 -21 238 -71 46 -19 69 -25 80 -18 29 18 45 67 46 133 0 53 -5 74 -27
112 -61 103 -187 159 -288 129z"/>
<path d="M19660 3340 l0 -2800 510 0 510 0 0 1010 c0 955 1 1010 18 1009 10 0
324 -383 825 -1010 l808 -1009 675 0 c371 0 674 2 674 5 0 3 -424 489 -942
1081 l-941 1076 889 889 889 889 -657 0 -656 0 -773 -827 c-425 -456 -781
-829 -791 -831 -17 -3 -18 58 -18 1657 l0 1661 -510 0 -510 0 0 -2800z"/>
<path d="M8140 5300 l0 -820 -360 0 -360 0 0 -395 0 -395 345 0 345 0 0 -962
c0 -958 4 -1097 36 -1288 57 -340 223 -621 452 -767 225 -144 481 -207 847
-207 251 0 430 24 638 85 l68 20 -6 107 c-6 124 -25 587 -25 630 l0 30 -64
-24 c-134 -48 -386 -67 -540 -39 -186 33 -288 133 -343 336 -16 58 -17 153
-20 1072 l-4 1007 516 0 515 0 0 395 0 395 -515 0 -515 0 0 820 0 820 -505 0
-505 0 0 -820z"/>
<path d="M17150 4594 c-270 -33 -471 -103 -660 -228 -190 -128 -330 -271 -427
-438 -25 -43 -50 -78 -54 -78 -5 0 -9 142 -9 315 l0 315 -490 0 -490 0 0
-1970 0 -1970 505 0 505 0 0 1129 c0 753 4 1155 11 1207 38 273 143 490 314
652 175 165 380 242 645 242 202 0 325 -39 455 -143 197 -157 276 -331 315
-689 6 -62 10 -515 10 -1248 l0 -1150 515 0 516 0 -3 1332 -4 1333 -23 125
c-67 362 -202 640 -416 856 -201 204 -455 333 -755 385 -110 19 -381 33 -460
23z"/>
<path d="M25470 4589 c-391 -34 -754 -158 -1062 -362 -98 -64 -154 -112 -274
-231 -167 -167 -254 -278 -342 -436 -186 -336 -266 -657 -266 -1070 0 -277 29
-471 105 -704 184 -561 610 -990 1199 -1206 302 -111 724 -166 1082 -142 577
39 1009 210 1356 536 82 78 212 226 212 242 0 5 -155 100 -345 211 l-345 202
-152 -95 c-382 -235 -581 -294 -958 -281 -240 9 -369 42 -568 147 -194 102
-312 208 -422 377 -68 103 -140 317 -140 414 0 19 31 19 1559 19 l1560 0 7 46
c11 75 -3 549 -20 659 -52 349 -155 625 -334 895 -105 159 -292 347 -452 453
-242 160 -522 264 -840 312 -131 19 -421 27 -560 14z m474 -764 c105 -23 232
-75 319 -131 223 -144 373 -414 394 -706 l6 -88 -1052 0 -1053 0 7 53 c28 215
110 391 254 541 186 194 432 315 711 350 79 9 337 -2 414 -19z"/>
<path d="M34550 4594 c-270 -33 -471 -103 -660 -228 -190 -128 -330 -271 -427
-438 -25 -43 -50 -78 -54 -78 -5 0 -9 142 -9 315 l0 315 -490 0 -490 0 0
-1970 0 -1970 505 0 505 0 0 1129 c0 753 4 1155 11 1207 38 273 143 490 314
652 175 165 380 242 645 242 202 0 325 -39 455 -143 197 -157 276 -331 315
-689 6 -62 10 -515 10 -1248 l0 -1150 515 0 516 0 -3 1332 -4 1333 -23 125
c-67 362 -202 640 -416 856 -201 204 -455 333 -755 385 -110 19 -381 33 -460
23z"/>
<path d="M12295 4584 c-297 -29 -476 -69 -696 -155 -262 -102 -478 -240 -673
-428 -312 -303 -512 -702 -583 -1161 -24 -158 -24 -481 0 -640 56 -367 204
-716 421 -994 85 -109 271 -285 387 -368 467 -332 1060 -475 1628 -393 339 50
683 189 973 395 125 89 314 273 408 398 292 389 436 873 417 1402 -12 315 -65
532 -197 805 -105 217 -201 355 -359 519 -319 328 -764 542 -1261 606 -89 12
-397 21 -465 14z m438 -817 c186 -49 342 -140 465 -271 165 -176 258 -368 317
-651 35 -167 41 -308 21 -475 -47 -384 -165 -646 -381 -849 -81 -75 -128 -108
-240 -164 -152 -76 -285 -107 -465 -107 -294 0 -525 98 -737 312 -96 96 -120
127 -173 224 -205 369 -246 860 -104 1252 155 432 416 672 811 747 123 23 361
14 486 -18z"/>
<path d="M29715 4579 c-372 -34 -774 -153 -1069 -313 -156 -85 -409 -266 -423
-302 -5 -12 502 -594 518 -594 5 0 32 21 61 47 77 69 214 155 351 222 232 113
401 158 638 168 300 12 527 -44 736 -183 184 -123 273 -299 273 -542 l0 -89
-242 -7 c-977 -28 -1630 -158 -2028 -403 -314 -194 -476 -412 -531 -713 -17
-96 -17 -333 0 -430 63 -353 289 -637 647 -814 147 -72 379 -137 604 -168 151
-20 461 -15 600 10 401 73 724 251 912 503 28 38 55 69 59 69 5 0 9 -112 9
-250 l0 -250 480 0 480 0 0 1204 c0 748 -4 1243 -10 1307 -25 252 -83 520
-143 658 -43 99 -142 250 -231 353 -234 270 -635 456 -1096 508 -135 15 -477
20 -595 9z m1089 -2361 c25 -417 -167 -766 -509 -924 -290 -134 -775 -140
-1027 -13 -74 38 -183 139 -216 203 -24 47 -26 60 -26 176 0 141 12 188 72
279 46 69 120 127 251 194 281 146 565 192 1207 196 l241 1 7 -112z"/>
</g>
</svg>
